# xmcd CD database file
#
# Track frame offsets:
#	150
#	17042
#	37940
#	49960
#	65547
#	77882
#	88212
#	105685
#	126857
#	138340
#	157982
#
# Disc length: 2264 seconds
#
# Revision: 0
# Processed by: cddbd v1.4PL0 Copyright (c) Steve Scherf et al.
# Submitted via: CDex 1.50Beta7
#
DISCID=8f08d60b
DTITLE=Hal Bynum - The Promise
DYEAR=2002
DGENRE=Country
TTITLE0=The Promise
TTITLE1=An Old Man's Prayer
TTITLE2=There Aint No Good Chain Gang
TTITLE3=Two Women
TTITLE4=Russel C. Skidmore,Coal Miner and Soldier, Retired
TTITLE5=The Strange Disappearance of Lyla
TTITLE6=Love at First Sight and Forever
TTITLE7=The Change (A Kind of Christmas Carol)
TTITLE8=Tryin' to Lose Weight
TTITLE9=Fathers and Sons
TTITLE10=Winter Beaches
EXTD=YEAR: 2002
EXTT0=
EXTT1=
EXTT2=
EXTT3=
EXTT4=
EXTT5=
EXTT6=
EXTT7=
EXTT8=
EXTT9=
EXTT10=
PLAYORDER=
